<?xml version="1.0" encoding="utf-8"?>
<!-- Generator: Adobe Illustrator 26.5.3, SVG Export Plug-In . SVG Version: 6.00 Build 0)  -->
<svg version="1.1" id="Layer_1" xmlns="http://www.w3.org/2000/svg" xmlns:xlink="http://www.w3.org/1999/xlink" x="0px" y="0px"
	 viewBox="0 0 181 50" style="enable-background:new 0 0 181 50;" xml:space="preserve">
<style type="text/css">
	.st0{stroke:#000000;stroke-width:0.8;stroke-miterlimit:10;}
	.st1{fill:url(#SVGID_1_);}
	.st2{fill:#FFFFFF;}
	.st3{fill:#4F4F4F;}
	.st4{fill:url(#SVGID_00000009570389452024238310000000817194022531370164_);}
</style>
<g>
	<path class="st0" d="M55,41.4h-2.4c-0.2,0-0.3,0.1-0.3,0.3v7.5c0,0.2,0.1,0.3,0.3,0.3H55c2.6,0,4.3-1.8,4.3-4v0
		C59.3,43.1,57.5,41.4,55,41.4z M58.7,45.5c0,1.9-1.4,3.5-3.7,3.5h-2.1v-7H55C57.2,42,58.7,43.5,58.7,45.5L58.7,45.5z"/>
	<path class="st0" d="M69.7,41.6c-0.1-0.2-0.2-0.3-0.4-0.3h0c-0.2,0-0.3,0.1-0.4,0.3l-3.5,7.5c0,0.1,0,0.1,0,0.2
		c0,0.1,0.1,0.3,0.3,0.3c0.1,0,0.2-0.1,0.3-0.2l1-2.1h4.8l1,2.1c0.1,0.1,0.2,0.2,0.3,0.2c0.2,0,0.3-0.1,0.3-0.3c0-0.1,0-0.1,0-0.2
		L69.7,41.6z M67.1,46.7l2.2-4.7l2.1,4.7H67.1z"/>
	<path class="st0" d="M83.6,46c1.4-0.2,2.4-1,2.4-2.3v0c0-0.6-0.2-1.1-0.6-1.5c-0.5-0.5-1.3-0.8-2.3-0.8h-3.1
		c-0.2,0-0.3,0.1-0.3,0.3v7.5c0,0.2,0.1,0.3,0.3,0.3c0.2,0,0.3-0.1,0.3-0.3v-3.1h2.7l2.5,3.2c0.1,0.1,0.2,0.2,0.3,0.2
		c0.2,0,0.3-0.1,0.3-0.3c0-0.1,0-0.1-0.1-0.2L83.6,46z M80.2,45.6V42H83c1.5,0,2.3,0.7,2.3,1.8v0c0,1.2-1,1.8-2.4,1.8H80.2z"/>
	<path class="st0" d="M97.2,45.3c0.7-0.3,1.4-0.8,1.4-1.9v0c0-0.5-0.2-0.9-0.5-1.3c-0.5-0.4-1.2-0.7-2.1-0.7h-3.1
		c-0.2,0-0.3,0.1-0.3,0.3v7.5c0,0.2,0.1,0.3,0.3,0.3h3.2c1.8,0,2.9-0.9,2.9-2.2v0C99,46.1,98.2,45.6,97.2,45.3z M93.2,42h2.8
		c1.3,0,2,0.6,2,1.5v0c0,1.1-0.9,1.7-2.1,1.7h-2.7V42z M98.4,47.3c0,1-0.9,1.6-2.3,1.6h-3v-3.2h2.8C97.5,45.7,98.4,46.3,98.4,47.3
		L98.4,47.3z"/>
	<path class="st0" d="M109.3,41.6c-0.1-0.2-0.2-0.3-0.4-0.3h0c-0.2,0-0.3,0.1-0.4,0.3l-3.5,7.5c0,0.1,0,0.1,0,0.2
		c0,0.1,0.1,0.3,0.3,0.3c0.1,0,0.2-0.1,0.3-0.2l1-2.1h4.8l1,2.1c0.1,0.1,0.2,0.2,0.3,0.2c0.2,0,0.3-0.1,0.3-0.3c0-0.1,0-0.1,0-0.2
		L109.3,41.6z M106.7,46.7l2.2-4.7l2.1,4.7H106.7z"/>
	<path class="st0" d="M125.5,49l-2.3-3c1.4-0.2,2.4-1,2.4-2.3v0c0-0.6-0.2-1.1-0.6-1.5c-0.5-0.5-1.3-0.8-2.3-0.8h-3.1
		c-0.2,0-0.3,0.1-0.3,0.3v7.5c0,0.2,0.1,0.3,0.3,0.3c0.2,0,0.3-0.1,0.3-0.3v-3.1h2.7l2.5,3.2c0.1,0.1,0.2,0.2,0.3,0.2
		c0.2,0,0.3-0.1,0.3-0.3C125.6,49.1,125.5,49.1,125.5,49z M119.8,45.6V42h2.8c1.5,0,2.3,0.7,2.3,1.8v0c0,1.2-1,1.8-2.4,1.8H119.8z"
		/>
</g>
<linearGradient id="SVGID_1_" gradientUnits="userSpaceOnUse" x1="70.6031" y1="19.7037" x2="70.6031" y2="0.1363">
	<stop  offset="1.396648e-02" style="stop-color:#EC4800"/>
	<stop  offset="0.5425" style="stop-color:#F77C1D"/>
	<stop  offset="0.9757" style="stop-color:#FFA333"/>
</linearGradient>
<path class="st1" d="M91.2,19.7C90.8,8.8,81.8,0.1,70.6,0.1C59.4,0.1,50.4,8.8,50,19.7H91.2z"/>
<path class="st2" d="M80.8,19.8H60.5L55,7.2l9.4,4.2c0.2,0.1,0.5,0,0.6-0.1l5.7-11.1l5.7,11.1c0.1,0.2,0.4,0.2,0.6,0.1l9.3-4.2
	L80.8,19.8z"/>
<polygon points="72.4,22.4 68.9,22.4 70.6,18 "/>
<g>
	<path d="M70.6,9.7c0,0,4.5,5.6,5.1,6.5c0.3,0.4,0.5,0.8,0.5,1.3c0,1.3-1.3,2.4-3,2.4c-1.1,0-2.4-0.9-2.6-1.6L70.6,9.7z"/>
	<path d="M70.6,9.7c0,0-4.5,5.6-5.1,6.5C65.2,16.6,65,17,65,17.5c0,1.3,1.3,2.4,3,2.4c1.1,0,2.4-0.9,2.6-1.6L70.6,9.7z"/>
</g>
<path class="st3" d="M48.7,31.3L48.7,31.3c0-4.3,3.2-7.7,7.6-7.7c2.9,0,4.8,1.3,6.1,3.1l-3,2.4c-0.8-1.1-1.8-1.7-3.2-1.7
	c-2,0-3.4,1.7-3.4,3.9v0c0,2.2,1.4,3.9,3.4,3.9c1.5,0,2.4-0.7,3.3-1.8l3,2.2c-1.4,1.9-3.2,3.3-6.4,3.3C52,39,48.7,35.7,48.7,31.3z"
	/>
<linearGradient id="SVGID_00000048495800677359726900000017985339507532511666_" gradientUnits="userSpaceOnUse" x1="70.6405" y1="23.8109" x2="70.6405" y2="38.6705">
	<stop  offset="4.553078e-02" style="stop-color:#FFA333"/>
	<stop  offset="0.2484" style="stop-color:#F98623"/>
	<stop  offset="0.7021" style="stop-color:#EC4800"/>
</linearGradient>
<path style="fill:url(#SVGID_00000048495800677359726900000017985339507532511666_);" d="M68.7,23.8h3.9l6.1,14.9h-4.3L73.4,36h-5.6
	l-1,2.6h-4.2L68.7,23.8z M72.2,32.9l-1.6-4.2L69,32.9H72.2z"/>
<path class="st3" d="M78.8,36.5l2.2-2.7c1.4,1.2,3,1.8,4.7,1.8c1.1,0,1.6-0.4,1.6-1v0c0-0.6-0.5-0.9-2.4-1.4
	c-3.1-0.7-5.4-1.6-5.4-4.6v0c0-2.7,2.1-4.7,5.6-4.7c2.5,0,4.4,0.7,5.9,2l-2,2.9c-1.3-0.9-2.8-1.5-4-1.5c-1,0-1.4,0.4-1.4,0.9v0
	c0,0.7,0.5,1,2.5,1.4c3.3,0.7,5.4,1.8,5.4,4.6v0c0,3-2.3,4.8-5.8,4.8C83,38.9,80.6,38.1,78.8,36.5z"/>
<path class="st3" d="M93.1,23.9h4v14.8h-4V23.9z"/>
<path class="st3" d="M99.4,23.9h3.7l5.9,7.8v-7.8h4v14.8h-3.5l-6.2-8.1v8.1h-4V23.9z"/>
<path class="st3" d="M114.7,31.3L114.7,31.3c0-4.3,3.3-7.7,7.8-7.7c4.5,0,7.8,3.4,7.8,7.6v0c0,4.2-3.3,7.7-7.8,7.7
	S114.7,35.6,114.7,31.3z M126.2,31.3L126.2,31.3c0-2.2-1.5-4-3.7-4c-2.2,0-3.6,1.8-3.6,3.9v0c0,2.1,1.5,4,3.7,4
	C124.7,35.3,126.2,33.5,126.2,31.3z"/>
</svg>
